<?xml version="1.0" encoding="UTF-8" standalone="no"?>
<svg
   version="1.1"
   width="259.23746"
   height="259.23743"
   viewBox="0 0 810.11705 810.11696"
   id="svg3"
   sodipodi:docname="falcon4.svg"
   inkscape:export-filename="falcon4.svg"
   inkscape:export-xdpi="96"
   inkscape:export-ydpi="96"
   inkscape:version="1.4.3 (fcd0343856, 2026-01-01)"
   xmlns:inkscape="http://www.inkscape.org/namespaces/inkscape"
   xmlns:sodipodi="http://sodipodi.sourceforge.net/DTD/sodipodi-0.dtd"
   xmlns="http://www.w3.org/2000/svg"
   xmlns:svg="http://www.w3.org/2000/svg">
  <sodipodi:namedview
     id="namedview1"
     pagecolor="#ffffff"
     bordercolor="#000000"
     borderopacity="0.25"
     inkscape:showpageshadow="2"
     inkscape:pageopacity="0.0"
     inkscape:pagecheckerboard="true"
     inkscape:deskcolor="#d1d1d1"
     inkscape:zoom="3.109119"
     inkscape:cx="129.61871"
     inkscape:cy="129.61871"
     inkscape:window-width="1920"
     inkscape:window-height="1011"
     inkscape:window-x="0"
     inkscape:window-y="0"
     inkscape:window-maximized="1"
     inkscape:current-layer="svg3" />
  <defs
     id="defs3" />
  <ellipse
     style="fill:#ffffff;fill-opacity:1;stroke:none;stroke-width:18.008;stroke-opacity:1"
     id="path14"
     cx="405.05853"
     cy="405.0585"
     rx="405.05853"
     ry="405.0585" />
  <path
     id="path1"
     fill="none"
     stroke="black"
     stroke-width="1"
     d="m 340.886,543.08588 c 0,0 11.11,-2.67 16.21,-5.4 5.09,-2.73 9.08,-6.45 13.88,-10.8 4.8,-4.35 13.28,-15.43 13.28,-15.43 -12.27,-10.14 -23.13,-23.48 -34.88,-30.08 -10.37,-5.69 -25.07,-8.5 -40.12,-13.88 -15.05,-5.38 -33.3,-12.47 -50.14,-18.51 -16.85,-6.04 -36.33,-10 -50.92,-17.74 -14.6,-7.74 -26.03,-16.54 -36.26,-27 -10.24,-10.46 -17.5,-21.68 -24.69,-34.71 -7.19,-13.03 -14.62,-27.36 -17.74,-43.19 -3.13,-15.83 0,-50.13 0,-50.13 0,0 19.9,26.62 30.85,37.02 10.96,10.4 21.05,17.99 33.95,25.45 12.91,7.46 25.38,13.71 43.2,18.51 17.83,4.8 44.34,2.41 63.27,7.72 18.92,5.3 36.06,14.2 49.37,22.36 13.32,8.17 30.86,24.69 30.86,24.69 4.14,-10.91 13.52,-17.47 21.99,-17.59 9.62,-0.14 17.66,6.57 21.99,17.59 0,0 17.54,-16.52 30.86,-24.69 13.31,-8.16 30.45,-17.06 49.37,-22.36 18.93,-5.31 45.44,-2.92 63.27,-7.72 17.82,-4.8 30.29,-11.05 43.2,-18.51 12.9,-7.46 22.99,-15.05 33.95,-25.45 10.95,-10.4 30.85,-37.02 30.85,-37.02 0,0 3.13,34.3 0,50.13 -3.12,15.83 -10.55,30.16 -17.74,43.19 -7.19,13.03 -14.45,24.25 -24.69,34.71 -10.23,10.46 -21.66,19.26 -36.26,27 -14.59,7.74 -34.07,11.7 -50.92,17.74 -16.84,6.04 -35.09,13.13 -50.14,18.51 -15.05,5.38 -29.75,8.19 -40.12,13.88 -13.77,8.97 -22.86,19.04 -34.88,30.08 0,0 8.48,11.08 13.28,15.43 4.8,4.35 8.79,8.07 13.88,10.8 5.1,2.73 16.21,5.4 16.21,5.4 -13.12,28.26 -30.47,40 -62.11,40.11 -30.89,0.31 -49.38,-12.29 -62.11,-40.11 z"
     style="display:inline;fill:#000000;fill-opacity:1;stroke:#000000;stroke-opacity:1">
    <title
       id="title1">path233-3-8-9</title>
  </path>
  <path
     id="path2"
     fill="none"
     stroke="#000000"
     stroke-width="1"
     d="m 762.396,365.67588 c -20.38,2.21 -39.79,-19.18 -48.62,-19.3 -17.76,-0.22 -31.41,44.9 -44.21,44.69 -20.83,-0.32 -30.57,-89.05 -44.21,-89.37 -18.51,-0.44 -30.7,161.24 -44.2,161.49 -20.77,0.38 -28.86,-258.48 -44.21,-259 -21.15,-0.71 -27.62,368.35 -45.31,368.69 -17.45,0.34 -28.13,-466.81 -44.21,-466.57 -18.43,0.27 -27.05,525.16 -44.43,525.22 -17.38,-0.07 -26,-524.95 -44.43,-525.22 -16.08,-0.24 -26.76,466.9 -44.21,466.57 -17.69,-0.34 -24.16,-369.4 -45.31,-368.69 -15.35,0.52 -23.44,259.38 -44.21,259 -13.5,-0.25 -25.69,-161.93 -44.2,-161.49 -13.64,0.32 -23.38,89.04 -44.21,89.37 -12.8,0.21 -26.45,-44.91 -44.209998,-44.69 -8.83,0.11 -28.24,21.51 -48.62,19.3"
     style="display:inline;stroke:#ffffff;stroke-width:3.125;stroke-dasharray:none;stroke-dashoffset:0;stroke-opacity:1;fill:none">
    <title
       id="title2">path386-0-3-0-7</title>
  </path>
</svg>
